<svg xmlns="http://www.w3.org/2000/svg" viewBox="0 0 39.91 58.27"><defs><style>.cls-1{fill:#211915;}.cls-2{fill:#cda68d;}.cls-3{fill:#ca9f80;}</style></defs><g id="Layer_2" data-name="Layer 2"><g id="Capa_1" data-name="Capa 1"><path class="cls-1" d="M5.74,39.54l4.17,6.23s-3.17,7.51-6.62,2.6S5.74,39.54,5.74,39.54Z"/><path class="cls-1" d="M33.81,39.54l-4.17,6.23s3.17,7.51,6.62,2.6S33.81,39.54,33.81,39.54Z"/><path class="cls-2" d="M3,32c0,15,7.51,26.24,16.78,26.24V4.78C10.48,4.78,3,17,3,32Z"/><path class="cls-3" d="M36.53,32C36.53,17,29,4.78,19.75,4.78V58.27C29,58.27,36.53,47.07,36.53,32Z"/><path class="cls-1" d="M36.14,8.66C32.59,3.37,31.23,4.06,30,3.29c-3.14-4-15.93-4.74-20.41,0-1.28.77-2.64.08-6.18,5.37-4.76,6.66-2.79,21-2.79,21s-.24.82.68,4.14,2,3.38,2,3.38S4.91,24.59,4.76,21.9,8,13.77,9.54,13c2.74-1.34,7.84.28,10.21-.07,2.36.35,7.46-1.27,10.2.07,1.52.75,4.94,6.2,4.79,8.88s1.47,15.27,1.47,15.27,1.12-.06,2-3.38.68-4.14.68-4.14S40.89,15.32,36.14,8.66Z"/><path class="cls-1" d="M6.13,26.67c2.22-.56,4.51-1.59,5.55-3.78,1.7-3.56-.89-7.63.52-11.28.16-.43-.67-.39-.79-.07-.83,2.14-.42,4.15-.2,6.38.43,4.3-.84,7.12-5.22,8.24-.51.13-.38.64.14.51Z"/><path class="cls-1" d="M.46,39.25A4.17,4.17,0,0,0,3.4,37.41c.84-1.63-.44-3.49.26-5.14.18-.42-.66-.38-.79-.07a5.51,5.51,0,0,0-.11,3,3,3,0,0,1-.47,2.56,3.57,3.57,0,0,1-2,1c-.51.12-.37.63.14.51Z"/><path class="cls-1" d="M39.44,39.53a4.21,4.21,0,0,1-2.94-1.85c-.84-1.62.45-3.49-.26-5.14-.17-.42.66-.38.79-.07a5.51,5.51,0,0,1,.12,3A3,3,0,0,0,37.61,38a3.51,3.51,0,0,0,2,1c.52.12.38.64-.14.52Z"/></g></g></svg>