<svg xmlns="http://www.w3.org/2000/svg" viewBox="0 0 75.43 63.33"><defs><style>.cls-1{fill:#716a5d;}.cls-2{fill:#c39e82;}.cls-3{fill:#b68e6e;}.cls-4{fill:#99989d;}.cls-5{fill:#c4b99e;}</style></defs><g id="Layer_2" data-name="Layer 2"><g id="Capa_1" data-name="Capa 1"><path class="cls-1" d="M72.85,57.18S48.93,61,37.57,60.77s-35-3.59-35-3.59S-1.86,54.34,13,39.91C22.61,30.64,21.65,7.67,37.7,5.54h0c16.06,2.13,15.1,25.1,24.66,34.37C77.29,54.34,72.85,57.18,72.85,57.18Z"/><path class="cls-2" d="M19.89,33.48c0,12.6,8.16,22.81,18.22,22.81V10.67C28.05,10.67,19.89,20.88,19.89,33.48Z"/><path class="cls-3" d="M56.32,33.48c0-12.6-8.16-22.81-18.21-22.81V56.29C48.16,56.29,56.32,46.08,56.32,33.48Z"/><path class="cls-4" d="M57,16.16C55.53,13,51.39,6.28,47.77,4.88,44.4,3.57,37.46,2.74,37.46,2.74s-7.75,1-10.95,2.84c-2.21,1.29-6.52,7.83-8,12.25-3.21,9.74,2.57,29.75,2.28,22.08-.43-11.57,3.47-14.8,4.33-15.25-.57.61,3.22,4.55,4.29,4.25,8.76-2.5,13.25-11.5,13.25-11.5a12.41,12.41,0,0,1,6.17,4c2.25,3,5.27,7.33,6.45,18.91C56.05,47.51,59.4,21.16,57,16.16Z"/><path class="cls-5" d="M0,55.88c.89,2.63,10.19,3.46,36.63,6.36l2.16.09C65.22,59.42,74.54,58.6,75.42,56,75.87,54.64,62,0,37.72,0S-.43,54.56,0,55.88Zm38.53,4.87-.84,0h-.3l-.83,0C-2.84,57.3-2.66,55.22,12.19,42.34,21.85,34,21,13.85,37.53,12h0c16.5,1.89,15.74,21.92,25.35,30.38C77.4,55.09,78,57.3,38.54,60.75Z"/><path class="cls-4" d="M47.41,49.45c-1.35-2.52-3.49-5.88-7.73-6.31-.44,0-.46.45-1.63.45s-1.19-.48-1.75-.41c-4,.52-6.25,3.8-7.54,6.23-5.84-5.3-8.87-14-8.87-14s.2,27.88,18.31,27.88S56.32,35.45,56.32,35.45,53.28,44.15,47.41,49.45Zm-9.3,2.79c-2.53,0-4.8.38-6.81-.89,1.74-1.28,4-3,6.81-3,3.57,0,5.06,1.75,6.8,3C42.9,52.62,40.63,52.24,38.11,52.24Z"/></g></g></svg>