<svg xmlns="http://www.w3.org/2000/svg" viewBox="0 0 41.96 55.8"><defs><style>.cls-1{fill:#654b2f;}.cls-2{fill:#4e381d;}.cls-3{fill:#211915;}</style></defs><g id="Layer_2" data-name="Layer 2"><g id="Capa_1" data-name="Capa 1"><path class="cls-1" d="M2.74,33C2.74,45.59,10.9,55.8,21,55.8V10.17C10.9,10.17,2.74,20.39,2.74,33Z"/><path class="cls-2" d="M39.17,33C39.17,20.39,31,10.17,21,10.17V55.8C31,55.8,39.17,45.59,39.17,33Z"/><path class="cls-3" d="M37,4.41C30.37-.57,21,0,21,0S11.59-.57,5,4.41-.12,27.12.93,28.89a31.26,31.26,0,0,1,1.91,5.69S6,17.29,10.18,16.43s4.89.67,10.8.67,6.56-1.53,10.8-.67,6.83,14.74,7.34,18.15c.25.26,1-4.13,1.91-5.69C42.08,27.12,43.58,9.39,37,4.41Z"/></g></g></svg>