<svg xmlns="http://www.w3.org/2000/svg" viewBox="0 0 75.46 68.39"><defs><style>.cls-1{fill:#211915;}.cls-2,.cls-6{fill:#99989d;}.cls-2{opacity:0.99;}.cls-3{fill:#c2c3c8;}.cls-4{fill:#434142;}.cls-5{fill:none;stroke:#211915;stroke-miterlimit:10;stroke-width:0.75px;}</style></defs><g id="Layer_2" data-name="Layer 2"><g id="Capa_1" data-name="Capa 1"><path class="cls-1" d="M73.68,59.6S78,61.3,38.55,64.75l-.83,0h-.3l-.84,0C-2.83,61.3,1.45,59.6,1.45,59.6s-4.56-.51,10.75-13.26C22,38.14,21.05,17.85,37.55,16h0C54.09,17.85,53.1,38.14,62.93,46.34,78.25,59.09,73.68,59.6,73.68,59.6Z"/><path class="cls-2" d="M56.16,29.92S51.58,19,50.91,20.24c-.28.5-2.68,1-5.37,1.45,2.5,5.53,4.08,13.61,4.08,22.62,0,1.09,0,2.16-.07,3.21,1.11-2.9,3.93-8.27,7.28-9.56C61,36.38,56.16,29.92,56.16,29.92Z"/><path class="cls-2" d="M29.58,21.71c-2.75-.43-5.22-1-5.5-1.47-.67-1.2-5.25,9.68-5.25,9.68s-4.47,5.78-.67,8c4.88,2.92,7.23,9.35,7.48,10.94a.05.05,0,0,0,0,0c-.1-1.51-.14-3-.14-4.63C25.52,35.32,27.09,27.24,29.58,21.71Z"/><path class="cls-3" d="M45.54,21.69c-3.74.6-8,1-8,1s-4.2-.42-7.91-1c-2.49,5.53-4.06,13.61-4.06,22.6,0,1.58,0,3.12.14,4.63.49,1.27,11.83-11.15,11.83-11.15S48.8,50.72,49.05,49.12a9.24,9.24,0,0,1,.5-1.6c0-1.05.07-2.12.07-3.21C49.62,35.3,48,27.22,45.54,21.69Z"/><path class="cls-4" d="M49.16,49.12c-3.08-.95-7.85-13.69-7.85-13.69s-2.33.21-3.7.21-3.7-.2-3.7-.2S28.83,48,25.75,48.9C25.75,48.9,31,65,32.93,68a.92.92,0,0,0,1.33.23c.84-.62,1.34-.9,3.35-.91s2.48.27,3.32.89a.94.94,0,0,0,1.35-.24C44.17,64.87,49.16,49.12,49.16,49.12Z"/><path class="cls-1" d="M49.94,34.15c-1.23-4.44-1.79-.93-11.49-.93H37c-9.7,0-10.26-3.51-11.49.93S30.4,36,37,35.87h1.44C45.07,36,51.2,38.69,49.94,34.15Z"/><path class="cls-5" d="M21.21,23.39A50.38,50.38,0,0,0,38,26.2a58.14,58.14,0,0,0,17.57-2.81"/><path class="cls-5" d="M21.71,21.48a50.41,50.41,0,0,0,16.82,2.81,58.12,58.12,0,0,0,17.56-2.81"/><path class="cls-5" d="M21.21,25.76A50.38,50.38,0,0,0,38,28.57a58.14,58.14,0,0,0,17.57-2.81"/><path class="cls-5" d="M22.14,45.06s-2-17.42,4.62-15.78a43.59,43.59,0,0,0,10.56,1.37,40.76,40.76,0,0,0,11-1.4c7-2.09,5.07,15.13,5.07,15.13"/><path class="cls-4" d="M37.73.08V0C22.52,1.25-.86,55.24,0,57.88s-6,3.74,36.63,8.36l2.16.09C81.44,61.7,74.55,60.6,75.44,58S52.94,1.33,37.73.08Zm36,59.52S78,61.3,38.55,64.75l-.83,0h-.3l-.84,0C-2.83,61.3,1.45,59.6,1.45,59.6s-4.56-.51,10.75-13.26C22,38.14,21.05,17.85,37.55,16h0C54.09,17.85,53.1,38.14,62.93,46.34,78.25,59.09,73.68,59.6,73.68,59.6Z"/><rect class="cls-6" x="35.06" y="36.76" width="4.8" height="0.34" rx="0.17"/><rect class="cls-6" x="34.36" y="37.55" width="6.2" height="0.34" rx="0.17"/><rect class="cls-6" x="33.83" y="38.34" width="7.48" height="0.34" rx="0.17"/></g></g></svg>